<svg xmlns="http://www.w3.org/2000/svg" viewBox="0 0 95.53 64.77"><defs><style>.cls-1{fill:#00a1e9;fill-rule:evenodd;}</style></defs><title>WIKA Logo</title><g id="Layer_2" data-name="Layer 2"><g id="Layer_1-2" data-name="Layer 1"><path class="cls-1" d="M42.92.12C41.4.26,39.74.27,38.2.37A109.19,109.19,0,0,0,5.39,7.62c-.58.23-1.15.49-1.72.74-.4.16-.6.14-.73.55A80.91,80.91,0,0,0,1,18.25,97.18,97.18,0,0,0,2.66,54.78c.41,1.64,0,1.28,2.65,2.35,1.21.48,2.38.94,3.61,1.39A108.45,108.45,0,0,0,33.51,64a139.18,139.18,0,0,0,19.12.68c7.07-.48,10.92-.61,18-1.93A102.13,102.13,0,0,0,86.5,58.55l5.35-2.13c.83-.37.64-.14,1-1.54,3.59-13.64,3.56-31.23,0-44.82l-.25-.94c-.13-.51-.12-.47-.59-.68A102.58,102.58,0,0,0,62.1.81C58,.36,47.21-.27,42.92.12ZM9.68,19.91a13.24,13.24,0,0,1,1.8-2.31,27.59,27.59,0,0,1,4.37-3.81C19.46,11.08,25.36,8.73,30,7.56A77.36,77.36,0,0,1,59.58,6.35a55.89,55.89,0,0,1,12.86,3.5,39.55,39.55,0,0,1,5.44,2.75,33.08,33.08,0,0,1,3.57,2.55c1.4,1.19,1.54,1.47,2.61,2.47.2.19.28.36.47.56a21.39,21.39,0,0,1,5.23,15.11,21.77,21.77,0,0,1-1.31,6.76l-3.89,0L82,19.91H76.74L69.21,39.19c-.63,1.54.06,1.2-3.24,1.14-.12-1.88-.51-4-.74-5.93s-.5-3.89-.75-5.85c-.07-.52-.23-1,0-1.41.74-1.24,4.11-6.58,4.37-7.23l-5.22,0-2.06,3c-.36.54-.7,1-1,1.5s-.72,1-1,1.47H56.79l1.31-6h-5l-5,20.45-4.55,0,3-14.43h-10l2.32-6-5.2,0L28.59,32.4,26.54,19.91H22.47c-.31.18-.6,1.13-.75,1.5l-4,9.37A9,9,0,0,1,17,32.32L15.18,19.91ZM86.58,43.8a10.73,10.73,0,0,1-.84,1.27C81.38,51.31,73.6,55,66.3,57c-8.94,2.53-20.73,2.9-30.34,1.42-12.8-2-26.48-8-29.6-20.65a23,23,0,0,1,.09-11.14c.15-.56.31-1.06.49-1.58.65-1.79,0-1.41,3.59-1.39L13,43.78h4.59c.36-1,.91-2.12,1.35-3.09l2.67-6.14c.23-.53.44-1,.68-1.55A10.09,10.09,0,0,1,23,31.56l1.6,12.12c.44.31-.23,0,.26.09H27c3.13,0,2.41.42,3.21-1.64l2-5.14c.45-1.15.88-2.3,1.35-3.42.25-.61,1.17-3.11,1.38-3.43h5.64l-3,13.63,14.59,0c.22-.43,2.63-10.33,3.05-11.95.11-.39.24-1.43.53-1.66h3.41c.21.12.13,0,.2.39l.36,3,.42,3.4c.29,2.29.57,4.56.85,6.86H72.22l1.49-3.69h4.94c.21.16.12,0,.19.42l.51,3.27,7.23,0Zm-44-20.15.84-3.73,4.61,0-.81,3.72ZM75.43,36l2.11-5.07c.13.21.68,4.48.72,5.09Z"/></g></g></svg>